<svg width="67" height="91" viewBox="0 0 67 91" fill="none" xmlns="http://www.w3.org/2000/svg">
<g filter="url(#filter0_d_29_209)">
<path d="M10 77V6H57V77L34.2344 59.9835L10 77Z" fill="white"/>
</g>
<g clip-path="url(#clip0_29_209)">
<path d="M20.7542 28.719L22.5016 28.9229L22.8168 30.6569L22.7889 31.0558L23.2853 31.9728L23.2574 32.3717L23.6633 33.9518L23.7857 33.9204L23.6948 34.0743L23.8557 35.2081L24.0693 35.5319L24.1952 36.0218L24.5661 36.958L24.5068 37.2344L24.6012 37.6019L25.0665 38.9056L25.0701 39.427C24.6742 39.7637 24.1891 40.0581 23.6181 40.3223C23.0453 40.3259 22.469 40.265 21.8738 40.1307L21.5307 38.7956L21.4084 38.827L21.4048 38.3056L21.1527 36.8166L20.5866 35.121L20.24 33.2645C20.0065 32.7108 19.803 32.071 19.6173 31.3484L19.1519 30.0447L19.3022 29.6144L20.7542 28.719ZM21.084 33.0476C21.3762 33.2206 21.7257 33.2614 22.1569 33.1637L21.084 33.0476ZM22.0143 35.1459L22.2314 35.991L22.3218 35.328L22.0143 35.1459ZM22.7912 37.6622L22.8577 38.4285L23.0429 38.6421L23.3505 38.8242C23.2498 38.4322 23.0603 38.05 22.7912 37.6622ZM21.0064 30.208C21.0717 30.361 21.1888 30.4615 21.3454 30.5126L21.0064 30.208ZM22.1299 34.5808L22.3466 34.9168L22.2522 34.5494L22.1299 34.5808Z" fill="#5E40A4"/>
<path d="M24.9205 27.3772L26.0996 27.3484L27.3127 26.8931L29.5857 26.4527L30.0403 26.1923L31.8118 25.8808C32.0579 26.0265 32.2799 26.2306 32.5022 26.4868L32.8479 27.3251L32.82 27.724L32.9144 28.0914L32.4197 28.7539C31.7703 28.764 31.0511 28.8574 30.2529 29.0495L30.6089 30.9427L30.8256 31.2787L31.2478 33.4292L31.4645 33.7652L31.8866 35.9157L32.1348 36.3742C32.0811 37.0278 31.7817 37.5879 31.2397 38.0666L30.2804 38.4437L29.8819 38.4155L29.515 38.5097L28.853 38.0139L28.6048 37.5554L28.4061 36.2746L28.1894 35.9386L28.2173 35.5397L27.6409 32.789L27.3019 32.4844L27.1311 30.8047L27.159 30.4058C27.0479 30.2777 26.9035 30.2234 26.7291 30.2551C26.3451 30.5366 25.875 30.788 25.3313 31.006L24.3684 30.8617L23.8307 29.2763C23.8009 28.5005 24.1642 27.8849 24.9205 27.3772ZM26.082 28.8023L26.0541 29.2012L26.2987 29.1383L26.3267 28.7394L26.082 28.8023ZM29.6174 33.3258L29.5018 33.8909L29.8687 33.7966L29.6174 33.3258ZM30.0607 34.5437L29.8543 35.2627L30.2841 35.4134L30.3683 34.7259C30.3218 34.6464 30.2141 34.5827 30.0607 34.5437ZM30.2283 36.2112L30.2665 36.8673L30.8589 36.5845C30.7351 36.4074 30.5321 36.2768 30.2283 36.2112ZM30.0136 27.6616C30.0633 27.7533 30.1709 27.817 30.3334 27.8405C30.2838 27.7488 30.1761 27.6851 30.0136 27.6616Z" fill="#5E40A4"/>
<path d="M35.457 24.9414L37.2045 25.1453L37.5197 26.8793L37.4917 27.2782L37.9882 28.1952L37.9602 28.5941L38.3662 30.1742L38.4885 30.1428L38.3977 30.2967L38.5586 31.4305L38.7722 31.7543L38.8981 32.2442L39.269 33.1805L39.2096 33.4569L39.3041 33.8243L39.7694 35.128L39.773 35.6494C39.3771 35.9861 38.892 36.2805 38.321 36.5447C37.7482 36.5483 37.1718 36.4874 36.5766 36.3531L36.2336 35.018L36.1113 35.0494L36.1077 34.528L35.8555 33.039L35.2958 31.3679L34.9492 29.5114C34.7156 28.9577 34.5121 28.3179 34.3265 27.5953L33.8611 26.2916L34.0113 25.8613L35.457 24.9414ZM35.7869 29.27C36.0791 29.4431 36.4286 29.4838 36.8598 29.3861L35.7869 29.27ZM36.7171 31.3683L36.9343 32.2134L37.0247 31.5504L36.7171 31.3683ZM37.4941 33.8846L37.5606 34.6509L37.7458 34.8645L38.0534 35.0466C37.9405 34.6578 37.751 34.2756 37.4941 33.8846ZM35.7092 26.4304C35.7746 26.5834 35.8917 26.6839 36.0483 26.735L35.7092 26.4304ZM36.8328 30.8032L37.0495 31.1393L36.9551 30.7718L36.8328 30.8032Z" fill="#5E40A4"/>
<path d="M44.136 22.7375C44.8891 22.6745 45.7254 22.6816 46.6572 22.7556C47.2538 23.0985 47.8575 23.5701 48.474 24.1429L48.9488 25.4834C48.9191 25.6216 48.9234 25.7902 48.9555 26.017L48.683 26.4787C48.3916 26.867 48.0512 27.2678 47.6588 27.6689L48.4364 27.5997C49.1277 27.9052 49.7041 28.4231 50.1624 29.141L50.5711 30.2242L50.5432 30.6231L50.2529 31.6247C49.9507 32.2247 49.4922 32.8256 48.8807 33.4397C48.1724 33.7784 47.3106 34.0782 46.3383 34.3541L44.5106 34.9543L44.1121 34.9261L43.7452 35.0203L42.4189 35.4917L42.0205 35.4635C41.8139 35.2685 41.607 35.0213 41.4301 34.6881L40.5938 31.9912L40.2153 29.9601L39.9518 29.4925L39.3876 26.7387L38.6807 25.0531L39.1441 24.2681L41.2164 23.6051L41.7494 23.5987C42.4099 23.429 43.2197 23.1296 44.136 22.7375ZM40.2531 25.1844C40.3059 25.2884 40.4136 25.3521 40.5638 25.3788C40.5233 25.2717 40.4156 25.208 40.2531 25.1844ZM41.5571 28.179L41.1623 28.6722C41.3287 28.8122 41.5191 28.8939 41.746 28.9139L41.9524 28.195L41.5571 28.179ZM41.726 30.9169L41.9427 31.2529L41.9989 30.9642L41.726 30.9169ZM42.5799 32.1599L42.1851 32.653L42.9607 33.642L43.2962 33.4252C43.1249 33.0122 42.8862 32.5904 42.5799 32.1599ZM41.6964 29.7362L41.6304 29.479L41.508 29.5104L41.6964 29.7362ZM41.2609 26.5185L40.9883 26.9803L41.6783 27.0772C41.6003 26.8753 41.4734 26.6859 41.2609 26.5185ZM42.1331 30.4205C42.327 30.5666 42.5787 30.6325 42.8513 30.6277L42.1331 30.4205ZM43.5531 33.3592C43.6059 33.4631 43.7104 33.5146 43.8607 33.5413C43.8233 33.4465 43.7156 33.3827 43.5531 33.3592ZM43.7033 32.9289C43.9927 33.1418 44.3492 33.3113 44.7637 33.4529C44.4834 33.2246 44.1269 33.0551 43.7033 32.9289ZM42.7961 28.383L43.2575 28.6562C43.1645 28.4973 43.0107 28.4062 42.7961 28.383ZM44.0232 25.9524L42.4401 26.4897L43.0026 27.664L44.0594 27.6667L44.3603 27.3152C44.8761 27.039 45.3387 26.6068 45.7514 26.0307L44.0232 25.9524ZM45.5129 29.6697L43.4629 30.4706L44.0914 31.9021L44.8691 31.8329C45.5135 31.5498 46.1939 31.153 46.947 30.6331C46.6582 30.0674 46.1842 29.7453 45.5129 29.6697ZM42.2186 24.5619L43.1814 24.7063C42.8927 24.5976 42.5677 24.5506 42.2186 24.5619ZM44.3854 24.2664C44.5402 24.5138 44.7618 24.6658 45.0442 24.75C44.9229 24.4808 44.7135 24.3257 44.3854 24.2664ZM45.9974 27.9522L46.2141 28.2882L46.242 27.8893L45.9974 27.9522ZM47.1425 31.9016C47.2327 32.1004 47.3991 32.2405 47.6385 32.3095C47.5605 32.1076 47.3973 31.9798 47.1425 31.9016ZM46.3136 27.6098C46.3664 27.7137 46.4741 27.7775 46.6212 27.7919L46.712 27.638L46.3136 27.6098ZM45.8843 24.4166C46.0486 24.7008 46.3195 24.8923 46.7001 25.0035C46.5145 24.7378 46.2436 24.5462 45.8843 24.4166ZM46.4603 26.6581L46.7364 26.7177L46.642 26.3503L46.5196 26.3817L46.4603 26.6581ZM47.2214 29.1132L47.5605 29.4178C47.492 29.2526 47.3749 29.1521 47.2214 29.1132ZM48.4861 30.3812L48.3897 31.0719C48.5015 30.8473 48.5336 30.6171 48.4861 30.3812ZM48.5301 30.0957C48.5797 30.1874 48.6874 30.2512 48.853 30.287C48.7971 30.1708 48.6894 30.107 48.5301 30.0957Z" fill="#5E40A4"/>
<path d="M34.7336 21.2622C35.0677 21.2939 35.4054 21.39 35.722 21.5567L36.05 22.4779L36.0525 22.8428C36.107 23.2075 36.0851 23.5787 35.9743 23.9597L35.4386 24.006L35.2893 24.1357L35.0454 24.3028C34.6991 24.2743 34.337 24.1845 33.9714 24.0304L33.4886 22.8618C33.5661 22.5546 33.6958 22.2471 33.8897 21.9361L34.7336 21.2622ZM35.0061 23.0333L34.962 22.8618L34.8764 22.8838L35.0061 23.0333Z" fill="#5E40A4"/>
<path d="M20.0561 25.0333C20.3902 25.065 20.7278 25.1611 21.0445 25.3278L21.3724 26.2489L21.3749 26.6139C21.4295 26.9786 21.4075 27.3498 21.2968 27.7308L20.761 27.7771L20.6118 27.9068L20.3679 28.0739C20.0216 28.0454 19.6595 27.9556 19.2939 27.8015L18.8233 26.6297C18.9009 26.3225 19.0305 26.015 19.2275 25.7163L20.0561 25.0333ZM20.3286 26.8044L20.2845 26.6329L20.1989 26.6549L20.3286 26.8044Z" fill="#5E40A4"/>
</g>
<defs>
<filter id="filter0_d_29_209" x="0" y="0" width="67" height="91" filterUnits="userSpaceOnUse" color-interpolation-filters="sRGB">
<feFlood flood-opacity="0" result="BackgroundImageFix"/>
<feColorMatrix in="SourceAlpha" type="matrix" values="0 0 0 0 0 0 0 0 0 0 0 0 0 0 0 0 0 0 127 0" result="hardAlpha"/>
<feOffset dy="4"/>
<feGaussianBlur stdDeviation="5"/>
<feColorMatrix type="matrix" values="0 0 0 0 0 0 0 0 0 0 0 0 0 0 0 0 0 0 0.25 0"/>
<feBlend mode="normal" in2="BackgroundImageFix" result="effect1_dropShadow_29_209"/>
<feBlend mode="normal" in="SourceGraphic" in2="effect1_dropShadow_29_209" result="shape"/>
</filter>
<clipPath id="clip0_29_209">
<rect width="40.353" height="31.8121" fill="white" transform="translate(16 24.2305) rotate(-14.4095)"/>
</clipPath>
</defs>
</svg>
