<svg width="22" height="19" viewBox="0 0 22 19" fill="none" xmlns="http://www.w3.org/2000/svg">
<path d="M11.7857 2.77081C11.7857 2.22279 11.947 1.68709 12.2492 1.23143C12.5513 0.775773 12.9808 0.420632 13.4833 0.210916C13.9858 0.00120054 14.5388 -0.0536707 15.0722 0.0532415C15.6057 0.160154 16.0957 0.424047 16.4803 0.811552C16.8649 1.19906 17.1268 1.69277 17.2329 2.23025C17.339 2.76773 17.2845 3.32485 17.0764 3.83115C16.8682 4.33745 16.5158 4.77019 16.0635 5.07465C15.6113 5.37911 15.0796 5.54161 14.5357 5.54161C13.8066 5.5408 13.1076 5.24862 12.5921 4.72917C12.0765 4.20971 11.7865 3.50542 11.7857 2.77081V2.77081ZM5.5 7.52076C5.5 6.97275 5.33872 6.43704 5.03654 5.98138C4.73437 5.52573 4.30488 5.17058 3.80238 4.96087C3.29988 4.75115 2.74695 4.69628 2.2135 4.80319C1.68006 4.91011 1.19005 5.174 0.805458 5.5615C0.420863 5.94901 0.158951 6.44272 0.0528417 6.9802C-0.0532676 7.51769 0.00119153 8.0748 0.209332 8.5811C0.417473 9.0874 0.769948 9.52014 1.22218 9.8246C1.67442 10.1291 2.2061 10.2916 2.75 10.2916C3.4791 10.2908 4.1781 9.99857 4.69365 9.47912C5.2092 8.95967 5.49919 8.25537 5.5 7.52076V7.52076ZM7.46429 5.54161C8.00819 5.54161 8.53987 5.37911 8.9921 5.07465C9.44434 4.77019 9.79681 4.33745 10.005 3.83115C10.2131 3.32485 10.2676 2.76773 10.1614 2.23025C10.0553 1.69277 9.79342 1.19906 9.40883 0.811552C9.02424 0.424047 8.53423 0.160154 8.00079 0.0532415C7.46734 -0.0536707 6.9144 0.00120054 6.41191 0.210916C5.90941 0.420632 5.47992 0.775773 5.17774 1.23143C4.87557 1.68709 4.71429 2.22279 4.71429 2.77081C4.71509 3.50542 5.00508 4.20971 5.52063 4.72917C6.03618 5.24862 6.73519 5.5408 7.46429 5.54161V5.54161ZM16.8037 11.5627C15.9992 11.1142 15.4043 10.3624 15.1496 9.4723C14.8885 8.56696 14.3428 7.77146 13.5945 7.20538C12.8463 6.6393 11.9359 6.33323 11.0002 6.33317C10.0645 6.33312 9.15404 6.63908 8.40572 7.20507C7.6574 7.77106 7.11163 8.56649 6.85045 9.4718C6.59674 10.3607 6.00331 11.1118 5.20045 11.5603C4.31369 12.0445 3.6457 12.8538 3.33476 13.8205C3.02382 14.7872 3.09375 15.8374 3.53007 16.7537C3.96639 17.6699 4.73569 18.382 5.67869 18.7425C6.6217 19.103 7.66618 19.0843 8.59591 18.6904C10.1324 18.0505 11.8578 18.0492 13.3953 18.6867C14.3244 19.0831 15.3693 19.1041 16.3134 18.7454C17.2575 18.3868 18.0285 17.6759 18.4666 16.7602C18.9048 15.8444 18.9765 14.7939 18.6669 13.8263C18.3573 12.8587 17.6902 12.0482 16.8037 11.5627V11.5627ZM19.25 4.74995C18.7061 4.74995 18.1744 4.91246 17.7222 5.21692C17.2699 5.52138 16.9175 5.95412 16.7093 6.46042C16.5012 6.96672 16.4467 7.52383 16.5528 8.06132C16.6589 8.5988 16.9209 9.09251 17.3055 9.48002C17.69 9.86752 18.1801 10.1314 18.7135 10.2383C19.2469 10.3452 19.7999 10.2904 20.3024 10.0807C20.8049 9.87093 21.2344 9.51579 21.5365 9.06014C21.8387 8.60448 22 8.06877 22 7.52076C21.9992 6.78615 21.7092 6.08185 21.1937 5.5624C20.6781 5.04295 19.9791 4.75077 19.25 4.74995Z" fill="#5E40A4"/>
</svg>
